<?xml version="1.0" standalone="no"?>
<!DOCTYPE svg PUBLIC "-//W3C//DTD SVG 20010904//EN"
 "http://www.w3.org/TR/2001/REC-SVG-20010904/DTD/svg10.dtd">
<svg version="1.0" xmlns="http://www.w3.org/2000/svg"
 width="512.000000pt" height="512.000000pt" viewBox="0 0 512.000000 512.000000"
 preserveAspectRatio="xMidYMid meet">
<metadata>
Created by potrace 1.16, written by Peter Selinger 2001-2019
</metadata>
<g transform="translate(0.000000,512.000000) scale(0.100000,-0.100000)"
fill="#000000" stroke="none">
<path d="M2340 4964 c-442 -57 -872 -239 -1215 -515 -104 -84 -281 -260 -378
-377 -75 -90 -181 -241 -206 -292 l-12 -25 23 26 c13 14 66 77 119 140 301
356 693 675 1013 824 529 248 1102 257 1660 29 416 -170 857 -543 1132 -957
124 -185 183 -313 254 -551 85 -284 115 -509 107 -791 -7 -223 -31 -359 -103
-575 -80 -241 -308 -630 -507 -868 -87 -103 -298 -306 -394 -378 -153 -116
-346 -217 -527 -278 -115 -38 -122 -32 -17 19 156 76 452 256 501 305 29 29
14 63 -57 131 -63 61 -64 62 -46 81 16 16 24 17 51 7 19 -6 39 -24 47 -40 27
-51 76 -99 101 -99 23 0 104 63 104 81 0 5 -15 0 -32 -11 -40 -24 -64 -25 -72
-5 -4 12 -10 14 -25 5 -27 -14 -27 -14 -55 27 -23 33 -24 38 -11 63 7 14 21
32 29 39 14 12 15 10 10 -17 -9 -47 3 -81 33 -93 41 -15 80 -1 131 47 26 24
63 54 82 67 102 66 372 453 496 712 19 38 34 77 34 86 0 11 -20 25 -56 39 -54
22 -56 24 -50 54 12 57 39 101 66 104 l25 3 -22 -20 c-26 -22 -30 -59 -7 -68
22 -8 66 37 61 64 -3 14 2 23 14 26 23 6 36 70 20 103 -6 13 -22 30 -37 36
-24 11 -25 15 -19 65 4 34 3 53 -4 53 -13 0 -51 -124 -39 -128 17 -7 5 -38
-98 -239 -174 -339 -286 -510 -441 -673 -123 -130 -263 -243 -280 -227 -2 3 1
32 7 64 10 48 19 63 49 87 66 55 252 240 315 316 131 156 243 345 320 537 49
122 116 339 116 376 0 24 -25 67 -40 67 -21 0 -42 -54 -51 -127 -43 -353 -242
-705 -598 -1058 -92 -91 -111 -106 -111 -86 0 36 -47 121 -92 168 -22 23 -66
53 -97 66 -86 38 -112 42 -54 8 77 -46 160 -131 190 -197 56 -122 23 -226
-112 -359 -120 -118 -221 -172 -413 -221 -91 -23 -285 -54 -462 -72 l-85 -9
76 -2 c223 -4 577 64 735 141 42 21 85 54 129 99 36 37 65 63 65 57 0 -25 -66
-100 -119 -136 -101 -67 -374 -146 -651 -189 -170 -26 -500 -23 -677 5 -314
50 -564 138 -666 234 -34 32 -36 37 -12 22 17 -10 54 -33 83 -50 157 -96 554
-186 800 -183 l97 2 -131 13 c-424 42 -725 139 -891 288 -90 81 -146 250 -111
335 13 32 13 31 10 -41 -4 -68 -1 -80 28 -138 56 -111 172 -204 294 -236 69
-19 242 -18 373 2 108 16 214 15 316 -4 64 -12 60 0 -5 16 -29 6 -115 43 -191
81 -137 68 -155 66 -51 -5 30 -21 52 -39 50 -41 -2 -3 -57 5 -123 16 -186 32
-194 33 -128 11 33 -11 80 -26 105 -33 l45 -12 -65 -3 c-125 -6 -310 29 -416
79 -220 103 -261 364 -71 460 47 24 250 69 313 69 l42 0 4 -45 c2 -25 2 -45 1
-45 -1 0 -14 5 -30 10 -26 9 -27 9 -9 -5 10 -8 42 -22 70 -31 108 -35 257
-127 599 -367 121 -85 175 -108 304 -132 107 -21 153 -39 153 -61 0 -13 -5
-15 -27 -8 -16 5 -136 9 -268 9 -132 0 -301 4 -375 9 -140 9 -358 0 -343 -14
4 -5 64 -16 133 -25 92 -13 224 -19 498 -22 347 -5 374 -4 392 12 11 10 20 24
20 30 0 9 40 14 143 17 215 8 345 55 458 168 70 69 109 146 109 215 0 49 -16
52 -24 3 -23 -142 -168 -276 -349 -322 -132 -34 -335 -32 -379 3 -21 18 -20
18 43 9 82 -12 231 -4 289 16 27 10 33 14 15 11 -154 -26 -379 -9 -467 36
l-42 21 110 28 c115 29 196 58 254 90 42 23 32 25 -32 5 -66 -19 -329 -48
-395 -43 -32 3 -65 13 -81 25 -31 23 -72 79 -72 99 0 17 54 44 145 74 39 13
117 44 175 70 58 26 132 55 165 65 33 9 87 26 120 37 33 11 93 23 134 25 87 5
79 23 -11 23 -47 0 -59 4 -68 20 -9 17 -17 19 -49 14 -21 -3 -41 -2 -44 3 -4
6 29 15 78 22 91 13 200 4 305 -24 30 -8 56 -12 58 -10 2 2 -14 16 -37 32 -75
51 -115 173 -110 333 3 131 -3 139 -16 21 -15 -130 -6 -187 45 -278 l29 -52
-53 19 c-81 27 -110 45 -220 132 -131 105 -183 126 -237 97 -19 -10 -20 -9 -5
19 14 28 67 80 116 115 25 17 24 17 -12 3 -54 -21 -47 -3 17 45 31 23 54 44
51 46 -8 8 -66 -27 -109 -65 -41 -36 -41 -36 -23 -7 80 129 232 174 340 100
41 -27 46 -21 15 19 -65 82 -205 72 -301 -22 -21 -20 -38 -33 -38 -29 0 18 41
86 79 132 45 54 73 131 90 245 12 77 26 330 19 330 -3 0 -11 -51 -18 -112 -15
-136 -40 -238 -75 -307 -25 -50 -110 -149 -120 -140 -2 3 0 21 5 40 43 147 87
459 78 554 -3 37 -4 34 -17 -33 -7 -40 -15 -71 -17 -69 -2 2 -13 68 -24 146
-21 153 -34 210 -56 254 -18 35 -7 35 63 3 151 -71 195 -152 283 -526 83 -352
99 -409 99 -368 1 54 -45 299 -95 498 -49 198 -91 293 -156 357 -47 46 -149
100 -251 133 -36 12 -82 34 -102 50 -20 16 -45 32 -56 35 -22 7 -25 37 -5 54
8 6 19 25 26 41 11 27 14 28 24 14 7 -9 22 -14 37 -12 23 3 24 6 21 67 -2 39
3 88 14 127 14 52 15 69 5 90 -7 17 -9 56 -5 117 7 90 7 92 37 107 40 20 57
47 37 60 -11 6 -22 0 -41 -23 -15 -18 -29 -30 -32 -27 -22 23 -57 117 -57 152
-1 116 -99 208 -222 208 -99 -1 -167 -53 -185 -141 -3 -18 -22 -53 -40 -78
-78 -102 -99 -173 -83 -277 8 -50 8 -75 0 -95 -10 -22 -8 -45 9 -117 17 -73
19 -94 9 -119 -9 -25 -9 -35 1 -47 17 -20 30 -20 51 -1 16 15 19 13 39 -20 28
-48 20 -81 -22 -89 -17 -4 -43 -17 -57 -30 -14 -14 -56 -36 -95 -51 -171 -64
-252 -152 -296 -322 -26 -104 -23 -126 4 -32 49 164 120 237 304 312 l62 25
-7 -46 c-4 -26 -7 -128 -7 -227 1 -170 2 -184 29 -260 31 -90 51 -126 113
-202 l43 -53 -87 0 -88 0 35 -22 c41 -27 144 -36 209 -18 l43 11 -44 28 c-61
39 -136 126 -169 196 -70 150 -90 483 -36 593 22 46 37 39 30 -16 -8 -69 20
-186 68 -282 30 -59 56 -94 104 -138 62 -57 79 -82 54 -82 -23 0 -97 70 -134
125 -20 31 -48 82 -61 113 -14 35 -23 49 -24 35 0 -33 39 -132 70 -178 33 -48
114 -125 132 -125 31 0 106 122 142 232 29 86 35 141 7 63 -20 -55 -52 -120
-75 -148 -13 -17 -17 -17 -43 -4 -80 42 -181 199 -203 316 -17 89 -13 118 15
137 17 11 25 25 25 45 0 32 11 37 31 13 49 -59 162 -57 232 4 16 14 17 13 17
-17 0 -24 6 -34 23 -40 58 -22 62 -66 42 -430 -16 -291 -26 -353 -58 -373 -7
-4 -33 -8 -58 -8 -70 0 -155 47 -230 128 -60 64 -62 65 -39 23 32 -56 154
-171 208 -195 23 -10 42 -23 42 -27 0 -22 -143 -75 -228 -85 -122 -13 -214 46
-247 161 -23 77 -16 296 14 474 12 69 20 129 18 135 -8 21 -49 -130 -60 -221
-14 -109 -27 -130 -27 -44 0 39 -4 60 -10 56 -16 -10 -13 -330 4 -393 7 -29
12 -52 10 -52 -7 0 -36 63 -50 109 -8 25 -18 93 -22 151 l-6 105 -7 -70 c-14
-135 16 -286 82 -417 16 -32 32 -80 36 -106 l6 -47 -84 89 c-46 48 -95 108
-108 132 -40 75 -48 172 -28 337 10 78 20 153 23 167 5 25 4 25 -6 2 -5 -13
-24 -93 -41 -179 -39 -195 -37 -264 10 -355 17 -34 30 -62 29 -62 -2 -1 -22
-11 -45 -24 l-43 -23 -1 88 c-1 48 -4 75 -6 58 -2 -16 -15 -75 -29 -130 -24
-93 -26 -113 -22 -270 3 -134 8 -178 22 -206 22 -47 51 -61 98 -45 l35 13 84
-91 c46 -49 75 -86 64 -82 -11 5 -41 11 -67 13 -27 3 -48 9 -48 14 0 4 -25 13
-55 20 -46 10 -71 9 -160 -5 -334 -55 -442 -120 -480 -290 l-6 -29 -105 104
c-159 158 -293 334 -387 509 -91 168 -167 411 -188 598 -6 53 -19 117 -29 142
-10 25 -21 52 -24 60 -3 10 -5 9 -5 -5 -1 -10 -8 -38 -17 -62 -16 -40 -15 -47
11 -160 40 -174 88 -311 155 -447 125 -253 271 -455 471 -651 109 -107 123
-125 131 -165 4 -25 11 -54 14 -64 10 -29 -95 57 -207 171 -186 189 -361 428
-443 605 -46 97 -129 320 -141 375 -3 18 -10 35 -14 37 -6 4 -89 -11 -152 -28
-27 -8 -27 -7 -43 81 -63 350 -41 660 75 1037 21 71 37 131 35 133 -7 7 -64
-139 -91 -232 -84 -289 -103 -570 -60 -858 30 -200 79 -353 130 -404 19 -19
36 -48 40 -69 3 -20 13 -51 21 -70 47 -112 45 -100 18 -113 -22 -10 -26 -7
-50 40 -14 28 -43 101 -64 163 -21 61 -54 152 -73 201 -65 166 -94 392 -83
655 12 316 66 587 162 813 19 45 34 84 34 86 0 16 -33 -47 -68 -129 -73 -172
-137 -411 -162 -610 -13 -109 -13 -490 0 -617 27 -241 97 -508 177 -667 36
-73 103 -186 110 -186 2 0 -14 35 -36 78 -70 139 -121 270 -151 387 -17 64
-30 124 -30 133 1 24 64 -127 145 -348 198 -537 636 -1008 1180 -1270 366
-176 754 -221 1220 -144 111 19 498 118 582 149 357 135 747 455 1004 825 224
323 368 639 437 960 25 117 27 141 27 385 0 226 -3 276 -23 385 -100 555 -284
909 -682 1311 -221 223 -405 361 -655 490 -202 104 -405 171 -650 215 -88 15
-439 27 -515 18z m333 -898 c37 -15 87 -69 87 -94 0 -12 -5 -10 -17 8 -10 14
-17 28 -15 33 1 4 -7 7 -18 7 -12 0 -20 7 -20 16 0 14 -9 16 -50 12 -27 -3
-47 -1 -44 3 9 16 -13 18 -41 3 -37 -19 -45 -10 -8 10 35 19 84 20 126 2z m53
-127 c23 -11 50 -29 60 -41 l19 -21 -41 21 c-68 35 -163 48 -241 33 -38 -7
-79 -19 -92 -28 -18 -11 -22 -12 -19 -2 6 19 64 51 107 60 55 12 161 1 207
-22z m-166 -59 c0 -5 -15 -10 -32 -10 -18 -1 -50 -7 -70 -14 -21 -8 -35 -10
-32 -5 6 10 90 37 117 38 9 1 17 -3 17 -9z m144 -1 c39 -11 119 -77 138 -113
5 -12 -4 -4 -22 17 -42 50 -104 85 -171 96 -44 7 -47 9 -19 10 19 0 52 -4 74
-10z m47 -65 c43 -30 97 -99 85 -111 -3 -3 -6 -1 -6 5 0 18 -70 91 -104 109
-17 9 -53 19 -81 24 l-50 8 57 -3 c44 -2 67 -9 99 -32z m-256 16 c-11 -5 -27
-9 -35 -9 -9 0 -8 4 5 9 11 5 27 9 35 9 9 0 8 -4 -5 -9z m-72 -28 c-12 -9 -30
-28 -41 -41 -13 -17 -21 -21 -26 -12 -4 6 -4 10 1 9 4 -1 22 12 40 30 17 17
35 32 40 32 4 0 -2 -8 -14 -18z m292 -11 c22 -10 53 -34 70 -52 l30 -34 -37
34 c-20 18 -61 42 -90 52 -29 10 -44 18 -33 18 11 1 38 -8 60 -18z m-135 -11
c0 -5 -12 -12 -27 -16 -97 -21 -150 -53 -184 -108 -10 -17 -19 -25 -19 -17 0
26 41 80 78 103 54 33 152 58 152 38z m91 -1 c38 -8 64 -22 97 -53 24 -22 47
-40 51 -39 3 1 8 -1 11 -4 3 -4 -1 -2 -9 2 -11 6 -13 4 -8 -8 18 -44 17 -50
-5 -22 -50 64 -93 91 -180 109 -16 4 -28 11 -28 16 0 13 7 12 71 -1z m-65 -27
c5 -5 29 -14 54 -21 94 -27 142 -89 157 -202 25 -192 -91 -389 -229 -389 -45
0 -120 48 -153 98 -83 125 -93 328 -22 433 21 32 46 45 142 77 40 13 40 13 51
4z m-251 -22 c3 -5 1 -10 -4 -10 -6 0 -11 5 -11 10 0 6 2 10 4 10 3 0 8 -4 11
-10z m512 -232 c-3 -8 -6 -5 -6 6 -1 11 2 17 5 13 3 -3 4 -12 1 -19z m-11 -75
c-11 -81 -17 -103 -28 -103 -6 0 -7 8 -3 18 4 9 11 43 17 75 12 69 23 76 14
10z m-502 -55 c8 -32 10 -58 6 -58 -8 0 -31 114 -29 141 1 15 2 12 23 -83z
m520 -388 c30 -106 38 -261 31 -590 -6 -333 -16 -455 -41 -533 -54 -164 -189
-289 -342 -317 -114 -20 -240 20 -268 85 -22 54 -18 56 38 22 48 -30 57 -32
142 -32 82 0 98 3 159 32 90 43 172 125 220 222 48 96 48 126 -1 38 -93 -169
-222 -266 -357 -266 -100 -1 -203 73 -230 163 -17 55 -20 122 -6 130 5 3 24
-2 42 -11 68 -34 231 -14 269 33 11 12 8 12 -22 0 -19 -8 -59 -17 -89 -21
l-54 -5 52 19 c132 49 257 137 322 226 l36 50 -65 -58 c-130 -116 -247 -177
-360 -184 -36 -2 -70 0 -76 4 -6 4 -14 31 -18 58 l-6 50 112 0 c93 0 125 4
181 24 80 27 179 91 219 142 46 57 57 121 69 389 11 247 8 364 -11 416 l-10
29 24 -29 c13 -16 31 -55 40 -86z m94 17 c0 -7 7 -37 16 -67 26 -95 48 -309
49 -470 0 -125 -4 -175 -22 -260 -22 -102 -27 -118 -35 -109 -16 16 -38 255
-46 489 -8 247 -22 383 -45 442 -6 16 -4 16 37 2 25 -8 45 -20 46 -27z m-2505
-889 c-11 -13 -26 -34 -33 -47 -11 -22 -11 -23 6 -16 11 4 27 10 37 12 20 6
77 -15 77 -29 0 -5 -9 -4 -19 2 -33 17 -50 12 -57 -17 -8 -33 -22 -53 -38 -53
-15 0 -56 79 -56 108 0 24 51 62 84 62 19 0 19 -1 -1 -22z m1569 -58 c61 -51
143 -184 162 -265 5 -24 1 -20 -23 20 -16 28 -41 61 -56 75 l-27 25 25 -50
c13 -27 37 -79 52 -115 15 -36 37 -85 48 -110 11 -25 22 -49 25 -55 2 -5 -9 6
-24 25 -62 76 -106 119 -138 134 -46 22 -119 20 -164 -3 l-37 -19 1 122 c0
171 1 171 35 211 39 44 72 46 121 5z m953 -137 c-8 -68 -95 -347 -121 -392
-16 -26 -28 -33 -93 -47 -55 -12 -83 -25 -103 -44 -15 -15 -43 -30 -61 -34
-29 -5 -37 -3 -50 18 -17 25 -129 66 -180 66 -24 0 -87 43 -87 59 0 4 26 -1
57 -11 144 -49 316 1 427 123 30 33 71 93 92 132 20 40 50 87 66 106 16 18 34
44 40 57 17 38 21 29 13 -33z m-2381 -50 c8 -20 3 -26 -56 -51 l-48 -21 -8 32
c-8 31 -8 32 31 39 22 4 42 10 45 13 11 11 30 4 36 -12z m3964 -96 c9 -45
-296 -545 -343 -563 -8 -3 -28 4 -44 15 -18 13 -32 17 -36 11 -3 -5 10 -19 29
-31 20 -12 36 -24 36 -28 0 -11 -79 -105 -118 -138 -48 -43 -67 -42 -82 3 -7
19 -18 38 -26 41 -10 3 13 35 73 102 48 53 89 98 90 100 2 3 19 -3 38 -12 42
-20 55 -6 19 22 -26 21 -26 21 -8 47 63 88 193 303 232 385 l47 97 45 -18 c25
-10 46 -25 48 -33z m-3918 -6 c16 -32 13 -37 -40 -59 l-50 -21 -1 25 c-1 13
-2 29 -3 36 -1 6 15 17 34 24 47 17 48 17 60 -5z m-117 -35 c6 -16 -2 -28 -14
-20 -12 7 -11 34 0 34 5 0 11 -6 14 -14z m1535 -10 c15 -8 37 -25 49 -38 l22
-23 -62 0 c-65 -1 -107 -17 -162 -62 l-29 -25 -18 22 c-23 28 -23 72 0 93 48
44 148 60 200 33z m1025 -41 c28 -13 193 -137 222 -167 14 -14 -72 0 -105 18
-14 7 -47 32 -75 55 -63 53 -128 83 -162 74 -32 -8 -27 15 8 33 27 14 65 10
112 -13z m-2390 -39 c36 -69 154 -233 223 -310 30 -34 54 -66 54 -71 0 -6 -9
-16 -20 -23 -11 -7 -20 -17 -20 -22 0 -5 30 -41 67 -80 46 -49 69 -68 77 -60
7 7 -6 26 -42 63 -46 46 -67 88 -44 87 4 -1 42 -34 86 -74 l78 -73 -30 -19
c-37 -23 -92 -97 -92 -123 0 -20 59 -77 161 -155 86 -67 103 -76 51 -29 -40
37 -42 41 -23 46 12 3 21 13 21 22 0 36 40 84 78 95 33 9 39 7 60 -14 l23 -23
-25 -38 c-25 -37 -31 -59 -27 -100 3 -30 -16 -6 -27 35 -9 29 -10 31 -11 10
-3 -73 113 -166 357 -289 166 -83 359 -143 572 -176 143 -23 495 -31 644 -15
65 6 120 9 123 7 7 -8 -173 -47 -291 -64 -186 -25 -414 -4 -676 62 -430 108
-790 315 -1107 636 -108 110 -178 195 -272 334 -67 98 -181 311 -181 339 0 11
40 32 45 23 137 -241 289 -453 422 -590 l77 -79 23 27 c30 35 29 51 -1 31 -24
-15 -26 -14 -56 10 -40 34 -55 63 -41 77 16 16 14 25 -10 38 -20 10 -21 9 -15
-17 6 -27 3 -25 -39 21 l-45 50 34 17 c19 10 38 22 41 28 10 17 -18 11 -53
-10 l-32 -20 -54 73 c-81 110 -216 328 -216 350 0 9 72 46 90 47 8 0 28 -24
43 -54z m1507 -91 l71 -94 54 0 c57 1 205 -31 205 -43 0 -9 3 -9 -105 -12 -44
-1 -98 -6 -120 -10 -35 -6 -47 -3 -97 29 -37 24 -75 60 -111 108 -74 100 -72
95 -35 106 60 17 65 14 138 -84z m858 43 c17 -11 32 -25 32 -32 0 -16 -26 -54
-68 -98 -20 -21 -33 -41 -29 -44 4 -4 7 -2 7 4 0 14 64 5 102 -14 15 -8 43
-14 63 -14 36 0 47 -13 19 -24 -9 -3 -32 -6 -53 -6 -20 0 -63 -7 -96 -15 -45
-12 -60 -13 -66 -4 -5 9 -17 4 -42 -18 -60 -53 -112 -66 -234 -61 -134 5 -188
27 -73 28 84 2 151 18 158 39 3 8 1 11 -4 8 -19 -11 -204 -18 -204 -8 0 6 10
12 23 15 12 2 49 9 83 15 92 17 168 41 158 51 -5 5 -26 5 -49 0 -54 -13 -115
-12 -115 0 0 13 28 23 108 40 l63 13 45 -31 c48 -34 59 -30 19 8 -25 23 -25
24 -6 44 10 12 33 47 51 79 35 63 42 65 108 25z m192 -108 c0 -5 -152 -40
-157 -36 -1 1 15 16 37 33 37 28 43 29 80 20 22 -6 40 -14 40 -17z m-1060
-135 c56 -22 81 -26 180 -28 63 -1 128 2 144 6 25 7 28 6 17 -6 -6 -8 -25 -21
-42 -27 -35 -15 -23 -30 26 -30 17 0 41 -3 54 -7 23 -6 23 -7 5 -14 -37 -14
-109 -9 -177 13 -57 18 -72 20 -100 10 -39 -14 -63 -8 -162 39 -54 26 -83 34
-126 34 -31 0 -62 5 -70 11 -8 6 -21 14 -29 18 -8 3 1 4 20 1 19 -2 42 0 50 6
25 17 140 3 210 -26z m314 15 c40 0 30 -6 -24 -14 -34 -5 -50 -3 -65 9 -19 16
-18 16 20 11 22 -3 53 -6 69 -6z m-499 -60 c43 0 146 -52 177 -88 14 -17 62
-58 107 -92 86 -64 110 -91 39 -42 -95 64 -258 157 -337 191 -87 37 -127 71
-54 45 21 -7 52 -13 68 -14z m760 -79 c6 -11 -4 -15 -115 -36 -47 -9 -127 -28
-179 -41 -126 -32 -144 -31 -202 13 -27 20 -49 41 -49 45 0 11 58 10 79 -2 19
-10 216 2 301 19 62 12 158 13 165 2z m-251 -191 c6 -24 11 -29 13 -17 4 14
14 7 49 -33 25 -27 79 -72 121 -100 41 -27 73 -50 71 -50 -15 0 -134 53 -160
71 -43 30 -150 119 -166 138 -11 14 -9 17 10 23 39 11 51 4 62 -32z m1445 -26
c26 -33 26 -49 1 -74 -26 -26 -48 -16 -25 10 24 26 11 59 -27 67 -21 4 -26 8
-16 14 24 15 46 9 67 -17z m-2738 -33 c44 -44 48 -62 19 -91 -21 -21 -42 -24
-75 -10 -18 7 -19 8 -2 15 9 4 24 4 32 1 10 -4 20 3 27 19 15 33 -2 72 -37 85
-26 10 -33 20 -14 20 6 0 29 -17 50 -39z m-101 4 c-7 -8 -10 -31 -8 -50 5 -42
-1 -43 -32 -10 -20 21 -21 27 -9 42 19 24 31 33 48 33 11 0 11 -3 1 -15z m50
-29 c0 -3 -4 -8 -10 -11 -5 -3 -10 -1 -10 4 0 6 5 11 10 11 6 0 10 -2 10 -4z
m2716 -43 c-7 -7 -26 7 -26 19 0 6 6 6 15 -2 9 -7 13 -15 11 -17z m-382 -289
c10 -27 -12 -52 -81 -90 -98 -55 -245 -110 -358 -133 -364 -74 -887 -62 -1170
26 -87 27 -268 110 -300 138 l-20 17 20 -7 c11 -3 79 -26 150 -50 207 -70 279
-73 107 -5 -45 18 -85 37 -88 42 -4 6 1 8 12 4 62 -19 277 -67 319 -71 28 -3
86 -10 130 -16 44 -6 174 -14 289 -18 l210 -6 8 -33 c11 -42 31 -31 22 13 l-6
32 84 12 c45 7 93 15 106 18 20 5 21 3 14 -18 -10 -25 -36 -36 -87 -38 -35 -2
-60 -15 -52 -28 8 -13 152 10 302 47 129 33 276 98 335 149 41 35 46 37 54 15z
m-139 -23 c-13 -13 -192 -82 -284 -110 -75 -23 -101 -22 -101 2 0 9 40 22 124
40 68 15 154 38 192 51 81 29 81 29 69 17z"/>
<path d="M2577 3624 c-4 -4 -7 -16 -7 -26 0 -14 6 -19 23 -16 14 2 22 10 22
23 0 20 -25 32 -38 19z"/>
<path d="M2420 3557 c3 -3 23 -12 45 -20 22 -8 48 -18 58 -22 23 -10 22 12 -2
24 -21 11 -109 27 -101 18z"/>
<path d="M2658 3539 c-26 -15 -22 -32 4 -18 12 6 33 15 47 20 26 7 26 7 -4 8
-16 0 -38 -4 -47 -10z"/>
<path d="M2400 3476 c0 -15 61 -35 89 -30 45 9 38 22 -11 21 -24 -1 -51 2 -60
7 -10 4 -18 6 -18 2z"/>
<path d="M2740 3470 c-8 -6 -32 -8 -52 -4 -44 7 -53 -11 -10 -21 30 -6 76 6
87 24 8 14 -5 14 -25 1z"/>
<path d="M2568 3434 c-5 -4 -8 -31 -8 -61 0 -29 -4 -53 -10 -53 -17 0 -11 -14
10 -28 17 -10 26 -10 50 3 17 9 28 21 24 26 -4 7 -10 7 -17 0 -26 -26 -36 -11
-39 55 -2 36 -6 62 -10 58z"/>
<path d="M2520 3255 c0 -3 7 -17 16 -30 20 -31 90 -36 101 -7 4 9 14 22 22 29
13 10 1 12 -61 13 -43 0 -78 -2 -78 -5z"/>
<path d="M2690 1893 c0 -19 -82 -103 -125 -129 -24 -13 -67 -34 -97 -45 l-53
-20 43 6 c57 7 113 37 169 88 45 41 79 94 69 105 -3 3 -6 1 -6 -5z"/>
<path d="M2620 1504 c-25 -13 -34 -22 -20 -18 25 7 70 33 70 40 0 6 -1 5 -50
-22z"/>
<path d="M4460 1711 c-28 -56 -32 -81 -11 -81 4 0 20 27 36 60 21 44 26 63 18
71 -9 9 -20 -5 -43 -50z"/>
<path d="M4358 1524 c-63 -107 -67 -116 -51 -121 10 -4 133 197 133 216 0 30
-24 2 -82 -95z"/>
<path d="M4240 1381 c0 -12 49 -31 55 -22 3 5 -9 14 -25 20 -17 5 -30 6 -30 2z"/>
<path d="M4232 1308 c5 -15 48 -24 48 -10 0 10 -23 22 -42 22 -5 0 -8 -6 -6
-12z"/>
<path d="M4057 1104 c-38 -36 -42 -63 -7 -44 21 11 60 58 60 71 0 17 -15 9
-53 -27z"/>
<path d="M635 1650 c-10 -16 75 -154 87 -142 6 6 -6 34 -32 78 -51 83 -46 78
-55 64z"/>
<path d="M730 1478 c0 -17 87 -128 100 -128 16 0 12 9 -37 76 -47 63 -63 76
-63 52z"/>
<path d="M863 1316 c-23 -11 -39 -36 -23 -36 23 0 60 21 60 35 0 17 -6 17 -37
1z"/>
<path d="M2045 468 c-11 -29 2 -36 92 -47 49 -6 105 -14 126 -17 29 -3 38 -1
35 8 -3 8 -47 18 -117 28 -75 10 -115 20 -121 30 -8 12 -10 12 -15 -2z"/>
<path d="M2356 405 c-5 -13 16 -15 151 -15 86 0 154 3 151 6 -4 3 -62 7 -130
10 -67 2 -133 6 -144 9 -14 3 -24 -1 -28 -10z"/>
<path d="M2365 4870 c-275 -25 -552 -113 -810 -258 -245 -137 -564 -403 -734
-611 -121 -147 -323 -481 -292 -481 5 0 32 42 62 93 114 198 232 361 358 490
78 81 229 215 315 281 l48 37 19 -39 c11 -21 33 -52 50 -68 l30 -29 37 20 c42
23 49 50 13 50 -30 0 -36 15 -16 40 14 20 14 19 15 -4 0 -22 1 -22 30 9 l30
32 -21 34 c-11 19 -24 34 -27 34 -17 0 -81 -52 -87 -70 -8 -26 -25 -26 -25 0
0 12 20 35 53 59 100 76 374 220 387 204 3 -4 22 -45 41 -90 19 -46 39 -81 44
-79 6 3 57 20 115 40 127 42 265 71 418 87 l112 12 0 74 c0 58 -3 73 -15 73
-12 0 -15 -14 -15 -65 l0 -65 -39 0 c-67 0 -327 -48 -439 -81 -59 -17 -114
-33 -122 -36 -11 -3 -24 17 -47 72 -36 88 -45 78 102 125 350 111 720 117
1103 17 73 -19 82 -24 82 -44 0 -19 -5 -23 -30 -23 -34 0 -41 -19 -9 -27 18
-5 20 -11 14 -42 -4 -20 -8 -38 -10 -40 -2 -2 -57 10 -122 26 -114 30 -157 53
-94 53 26 0 31 5 40 37 6 20 8 39 6 41 -7 7 -145 31 -181 31 -20 1 -34 -5 -38
-15 -11 -28 -7 -35 13 -24 25 13 57 13 121 -1 30 -6 50 -16 50 -24 0 -11 -13
-10 -65 5 -43 12 -67 15 -71 8 -4 -6 -1 -14 6 -18 7 -4 9 -16 6 -27 -6 -18
-13 -20 -76 -15 -81 5 -99 -13 -22 -23 102 -12 273 -46 353 -69 46 -14 87 -22
90 -18 4 4 17 46 29 94 l23 87 51 -21 c326 -128 596 -308 849 -565 l78 -79
-42 -33 c-29 -24 -38 -36 -30 -44 8 -8 20 -2 42 19 l32 29 -7 -58 c-6 -53 -5
-57 11 -48 10 5 27 19 37 30 11 12 22 21 26 21 10 0 131 -164 199 -270 61 -94
171 -299 171 -318 0 -6 -16 -8 -37 -5 -29 4 -46 -1 -73 -19 -32 -22 -35 -28
-38 -81 -2 -47 2 -66 23 -106 15 -27 38 -54 51 -60 35 -15 90 -14 124 4 l29
15 15 -52 c21 -74 46 -222 46 -275 l0 -44 -72 3 -72 3 -3 35 c-2 19 -8 79 -14
133 -6 55 -7 102 -4 105 4 4 23 12 43 17 59 17 52 35 -13 28 -45 -5 -59 -2
-75 12 -25 22 -25 17 -1 -68 11 -37 25 -102 30 -145 20 -141 56 -226 75 -177
4 11 22 15 76 15 l70 0 0 33 c0 58 -40 279 -74 413 -27 102 -52 166 -114 295
-317 650 -927 1171 -1542 1318 -233 56 -484 79 -675 61z m2203 -1552 c-3 -7
-22 -19 -44 -27 -51 -19 -50 -18 -29 -41 32 -35 76 -21 117 38 l16 23 6 -25
c13 -54 -26 -96 -90 -96 -33 0 -74 45 -74 81 0 16 1 29 3 29 1 0 20 7 42 15
50 18 58 18 53 3z"/>
<path d="M2550 4735 c0 -41 4 -75 9 -75 13 0 21 26 21 66 0 31 3 34 30 34 20
0 30 5 30 15 0 10 -11 15 -35 15 -19 0 -35 5 -35 10 0 6 -4 10 -10 10 -6 0
-10 -32 -10 -75z"/>
<path d="M2254 4787 c-3 -8 0 -33 5 -57 5 -24 8 -48 5 -52 -6 -10 8 -10 30 -2
16 6 16 24 0 102 -5 24 -32 30 -40 9z"/>
<path d="M2360 4768 c0 -9 15 -12 50 -10 65 5 65 22 0 22 -33 0 -50 -4 -50
-12z"/>
<path d="M2137 4742 c-40 -13 -52 -14 -69 -3 -25 16 -32 9 -24 -25 6 -24 10
-26 44 -20 28 5 22 0 -28 -19 -36 -14 -66 -22 -68 -17 -1 5 -9 18 -17 28 -21
29 -28 11 -11 -30 l15 -36 38 14 c21 7 70 21 110 30 81 20 97 33 87 70 -7 30
-11 30 -77 8z m33 -32 c-8 -5 -22 -10 -30 -10 -13 0 -13 1 0 10 8 5 22 10 30
10 13 0 13 -1 0 -10z"/>
<path d="M3055 4680 c-3 -5 1 -13 10 -16 22 -9 29 1 11 15 -10 8 -16 9 -21 1z"/>
<path d="M3186 4664 c-12 -32 -5 -82 17 -114 27 -41 47 -49 47 -21 0 32 20 25
27 -9 7 -38 17 -38 33 0 l13 30 23 -25 c20 -22 26 -23 53 -14 38 13 76 58 62
72 -6 6 -21 5 -42 -4 -26 -10 -34 -10 -37 -1 -2 7 -15 26 -29 42 -20 24 -33
30 -65 30 -21 0 -48 -5 -59 -10 -16 -9 -19 -7 -19 15 0 28 -15 34 -24 9z m64
-73 c0 -5 -7 -14 -15 -21 -12 -10 -15 -10 -15 2 0 8 3 18 7 21 9 10 23 9 23
-2z"/>
<path d="M1583 4575 c-34 -20 -65 -40 -68 -45 -3 -5 0 -21 8 -36 l13 -26 33
27 c29 25 33 26 49 12 9 -8 34 -20 54 -25 70 -19 146 45 120 102 -12 27 -54
37 -68 15 -6 -10 -32 -9 -64 5 -8 3 -42 -10 -77 -29z"/>
<path d="M3489 4542 c-14 -19 -19 -36 -16 -57 8 -53 0 -57 -56 -26 -29 16 -62
32 -74 36 -41 12 -24 -11 30 -40 28 -16 70 -40 92 -55 64 -44 105 -61 124 -55
19 6 71 76 71 95 0 18 -92 109 -121 119 -25 9 -31 6 -50 -17z m41 -101 c0 -11
-29 -35 -35 -29 -10 9 7 38 21 38 8 0 14 -4 14 -9z m78 -3 c17 -17 15 -38 -4
-59 -15 -17 -19 -17 -46 -3 l-29 15 21 29 c23 32 39 37 58 18z"/>
<path d="M2295 4545 c-351 -57 -608 -166 -891 -378 -120 -90 -480 -432 -550
-522 -25 -33 -64 -89 -85 -125 -21 -36 -50 -78 -64 -95 -23 -28 -24 -29 -25
-8 0 17 -13 29 -50 48 -62 31 -74 31 -94 0 l-16 -25 84 -40 c48 -22 92 -37
101 -34 9 4 28 30 42 58 78 155 180 282 394 491 353 344 644 508 1050 591 121
25 155 28 349 28 189 1 228 -2 323 -22 370 -80 680 -243 1014 -533 348 -304
544 -669 608 -1134 20 -151 23 -165 34 -165 21 0 -17 256 -65 439 -79 302
-234 563 -470 791 -339 328 -678 520 -1083 617 -91 22 -134 26 -311 29 -145 2
-231 -1 -295 -11z"/>
<path d="M1598 4455 c-48 -25 -69 -45 -47 -45 18 0 99 49 99 60 0 12 3 13 -52
-15z"/>
<path d="M2461 4448 c-193 -20 -396 -75 -583 -158 -510 -228 -958 -711 -1088
-1174 -77 -275 -79 -630 -5 -920 64 -255 231 -563 402 -743 63 -66 60 -59 -24
52 -251 334 -369 618 -404 971 -13 137 -7 335 16 472 75 457 421 919 910 1217
224 136 529 240 769 261 l79 7 -6 -46 c-4 -26 -10 -59 -13 -73 -6 -25 -6 -26
27 -19 19 4 36 9 38 11 3 2 -3 28 -12 58 -9 29 -17 56 -17 61 0 14 232 -3 340
-25 543 -110 987 -451 1233 -945 69 -140 109 -257 138 -415 20 -108 23 -157
24 -355 0 -203 -3 -242 -23 -335 -32 -148 -94 -327 -155 -450 -52 -105 -172
-294 -226 -355 -16 -18 -44 -55 -62 -82 -31 -47 -32 -47 -4 -23 139 126 324
434 405 677 102 308 120 587 60 938 -81 475 -405 915 -869 1180 -268 154 -665
243 -950 213z"/>
<path d="M3678 4396 c-25 -19 -39 -62 -29 -89 11 -28 27 -41 66 -55 l30 -10
-30 -1 c-28 -1 -27 -3 24 -31 63 -35 70 -37 47 -11 -15 16 -15 19 -2 24 17 7
56 78 56 103 0 9 -15 31 -34 50 -27 27 -42 34 -72 34 -22 0 -47 -6 -56 -14z
m46 -82 c9 -3 16 -10 16 -15 0 -14 -26 -10 -40 6 -13 16 -3 20 24 9z"/>
<path d="M1253 4344 c-15 -24 -15 -29 -2 -53 11 -18 23 -26 42 -26 33 1 31
-11 -7 -33 -27 -17 -28 -17 -62 23 -33 39 -34 39 -24 10 6 -16 21 -43 34 -60
l24 -30 56 39 c31 21 59 43 62 47 7 12 -76 109 -92 109 -8 0 -21 -12 -31 -26z"/>
<path d="M3841 4286 c-9 -11 -4 -20 25 -46 l37 -32 18 23 c18 24 18 24 -9 46
-31 26 -55 29 -71 9z"/>
<path d="M2549 4250 c-99 -17 -183 -83 -227 -179 -21 -45 -26 -71 -26 -129 1
-40 5 -77 10 -82 5 -5 9 26 9 78 0 100 22 159 82 217 60 58 116 80 208 79 98
0 152 -22 225 -90 27 -26 50 -42 50 -36 0 5 -25 33 -55 60 -76 70 -174 99
-276 82z"/>
<path d="M1150 4237 c0 -10 -12 -22 -27 -28 -16 -6 -40 -22 -55 -36 -15 -15
-33 -23 -42 -20 -17 7 -70 -48 -81 -83 -10 -31 10 -48 24 -21 14 26 26 26 58
1 14 -11 35 -20 46 -20 19 0 18 -2 -8 -30 -32 -34 -61 -38 -107 -14 -29 15
-31 15 -59 -12 -23 -22 -26 -30 -15 -36 8 -4 25 -4 37 1 19 7 26 4 37 -18 12
-24 11 -28 -13 -48 -32 -28 -52 -29 -60 -3 -8 25 -20 25 -56 -1 -37 -26 -37
-36 5 -56 31 -14 39 -14 71 -2 46 18 325 313 325 344 0 11 -18 39 -40 60 -29
29 -40 35 -40 22z m17 -79 c-3 -7 -5 -2 -5 12 0 14 2 19 5 13 2 -7 2 -19 0
-25z m-17 -48 c-12 -23 -56 -44 -71 -34 -15 9 -10 24 9 24 9 0 28 7 42 14 14
8 26 14 28 15 1 1 -2 -8 -8 -19z"/>
<path d="M3950 4216 c0 -30 101 -138 116 -123 4 4 -104 137 -111 137 -3 0 -5
-6 -5 -14z"/>
<path d="M3860 4187 c0 -16 132 -147 148 -147 20 0 14 13 -33 67 -48 55 -115
101 -115 80z"/>
<path d="M2892 4008 c19 -61 20 -112 3 -188 -4 -22 -3 -21 9 5 22 44 20 151
-4 203 -27 60 -31 52 -8 -20z"/>
<path d="M3042 4048 c-19 -19 -14 -56 8 -63 23 -7 50 10 50 31 0 13 -27 44
-39 44 -4 0 -12 -5 -19 -12z"/>
<path d="M4021 4011 c-11 -7 -1 -24 43 -77 32 -37 76 -96 98 -131 42 -66 47
-70 66 -51 8 8 6 18 -9 40 -18 25 -19 29 -4 34 10 4 26 -2 40 -16 36 -34 53
-14 18 22 -22 23 -34 28 -55 24 -24 -5 -36 5 -105 79 -57 62 -82 82 -92 76z"/>
<path d="M2157 3979 c-266 -65 -542 -256 -703 -487 -55 -77 -36 -73 22 6 105
144 289 299 453 382 74 37 216 87 274 95 26 4 47 11 47 16 0 11 1 11 -93 -12z"/>
<path d="M3100 3985 c0 -3 26 -17 57 -31 80 -36 186 -99 263 -156 88 -66 240
-217 240 -239 0 -20 37 -36 52 -21 16 16 5 47 -19 50 -11 2 -59 41 -106 87
-46 46 -122 111 -167 144 -106 77 -320 189 -320 166z"/>
<path d="M1683 3824 c-3 -8 1 -22 9 -30 19 -19 52 3 42 29 -8 21 -43 22 -51 1z"/>
<path d="M2224 3815 c-9 -23 3 -45 25 -45 25 0 34 14 26 40 -7 23 -43 27 -51
5z"/>
<path d="M4285 3767 c-25 -24 -45 -50 -45 -57 0 -8 18 4 40 25 32 31 40 35 40
20 0 -10 -12 -31 -27 -47 -38 -39 -23 -45 36 -12 43 23 50 31 45 48 -7 22 -34
66 -40 66 -2 0 -24 -19 -49 -43z"/>
<path d="M789 3770 c13 -11 33 -20 45 -20 20 0 20 1 -4 20 -14 11 -34 20 -45
19 -19 0 -19 -1 4 -19z"/>
<path d="M731 3738 c-18 -29 -18 -34 -5 -49 13 -15 13 -20 -5 -50 -21 -34 -30
-24 -11 11 16 29 -10 38 -32 10 -25 -31 -23 -36 19 -65 44 -30 56 -31 51 -7
-3 9 11 47 29 84 l33 67 -29 16 c-29 14 -30 14 -50 -17z"/>
<path d="M4343 3667 l-32 -23 26 -33 c19 -24 27 -47 29 -84 4 -74 19 -136 38
-155 15 -15 16 -15 16 0 0 8 18 32 41 53 22 20 38 39 35 43 -4 3 -25 -3 -49
-15 l-42 -20 -3 21 c-1 11 -4 44 -6 73 -1 28 -10 63 -19 77 -19 29 -22 40 -7
31 5 -3 28 -38 49 -78 56 -100 63 -65 10 46 -23 48 -44 87 -48 87 -3 -1 -20
-11 -38 -23z"/>
<path d="M615 3554 c-21 -39 -21 -38 38 -70 32 -17 44 -12 58 23 12 33 3 43
-15 17 -19 -25 -31 -12 -14 15 11 18 10 23 -7 35 -30 23 -39 20 -60 -20z"/>
<path d="M3581 3575 c0 -5 13 -26 29 -45 17 -19 30 -29 30 -22 0 6 -13 26 -30
44 -16 18 -29 29 -29 23z"/>
<path d="M3711 3414 c-15 -11 -19 -20 -12 -27 12 -12 65 19 56 33 -9 14 -17
12 -44 -6z"/>
<path d="M525 3390 c-30 -12 -64 -53 -75 -89 -12 -43 2 -79 37 -92 23 -9 30
-7 44 10 24 29 41 26 37 -6 -2 -23 -8 -29 -35 -31 -18 -2 -42 2 -54 8 -26 15
-32 7 -55 -70 -23 -79 -29 -120 -16 -120 11 0 13 6 31 76 11 40 11 40 58 40
l48 -1 -27 -105 c-14 -58 -30 -134 -34 -169 l-7 -63 -39 5 c-22 3 -42 7 -44
10 -3 3 2 42 11 88 12 66 13 84 3 90 -15 10 -25 -19 -34 -106 -4 -33 -10 -64
-14 -70 -4 -5 -5 -24 -3 -42 6 -35 22 -43 93 -43 l46 0 12 103 c12 103 34 196
91 388 17 58 31 120 31 137 0 49 -51 75 -105 52z m63 -118 c3 -9 -2 -10 -21
-3 -18 7 -30 6 -46 -5 -18 -13 -21 -13 -21 0 0 8 6 17 13 20 21 9 70 1 75 -12z
m-118 -525 c0 -9 -12 -11 -40 -9 -22 2 -40 8 -40 13 0 5 18 9 40 9 26 0 40 -5
40 -13z"/>
<path d="M3755 3320 c128 -253 152 -617 59 -912 -51 -162 -165 -348 -283 -463
-46 -44 -64 -76 -43 -74 10 1 126 136 181 212 91 125 166 306 202 488 19 96
17 356 -4 462 -28 137 -103 337 -127 337 -6 0 1 -23 15 -50z"/>
<path d="M1304 3323 c-3 -10 -19 -47 -34 -83 -76 -172 -106 -348 -97 -573 8
-202 52 -395 116 -512 27 -49 22 -26 -19 85 -117 318 -116 666 2 963 27 66 37
83 56 85 17 3 22 9 20 25 -4 28 -36 35 -44 10z"/>
<path d="M4597 3043 c-26 -7 -10 -23 24 -23 20 0 29 4 27 13 -5 13 -24 17 -51
10z"/>
<path d="M4585 2988 c-6 -30 7 -89 20 -89 6 0 11 12 13 26 4 31 20 33 26 3 18
-88 23 -102 31 -98 10 5 10 27 -1 108 -4 36 -8 42 -30 42 -15 0 -24 6 -24 15
0 24 -29 17 -35 -7z"/>
<path d="M451 2943 c-13 -47 -14 -83 -2 -83 12 0 18 17 26 74 9 57 -9 63 -24
9z"/>
<path d="M851 2663 c-4 -405 180 -859 474 -1171 61 -64 76 -55 17 11 -128 141
-216 272 -297 440 -110 229 -155 396 -175 652 -14 172 -18 188 -19 68z"/>
<path d="M4655 2730 c-3 -5 1 -10 10 -10 9 0 13 5 10 10 -3 6 -8 10 -10 10 -2
0 -7 -4 -10 -10z"/>
<path d="M2217 2621 c-25 -101 -32 -211 -18 -268 15 -59 55 -119 92 -139 41
-21 44 -17 9 12 -72 61 -95 182 -71 369 7 48 10 89 8 91 -2 2 -11 -27 -20 -65z"/>
<path d="M380 2656 c0 -12 10 -16 45 -16 38 0 45 -3 45 -20 0 -18 -7 -20 -60
-20 l-60 0 1 -32 c1 -18 4 -44 8 -57 7 -27 31 -41 31 -18 0 17 29 27 78 27 17
0 32 5 32 10 0 6 -27 10 -60 10 -33 0 -60 4 -60 9 0 13 27 21 73 21 l42 0 -3
45 c-4 45 -4 45 -42 45 -21 0 -45 3 -54 6 -11 4 -16 1 -16 -10z"/>
<path d="M4592 2583 l3 -78 33 -3 c28 -3 32 -7 32 -33 0 -38 24 -34 28 4 3 25
7 27 53 27 l49 0 0 74 0 73 -52 7 c-29 3 -75 6 -101 6 l-48 0 3 -77z m166 -5
c-3 -52 -4 -53 -35 -56 -28 -3 -33 0 -33 17 0 14 6 21 20 21 11 0 20 3 20 8 0
12 -52 32 -82 32 -18 0 -28 5 -28 15 0 12 15 15 71 15 l70 0 -3 -52z m-88 -34
c0 -8 -10 -14 -25 -14 -18 0 -25 5 -25 19 0 14 6 17 25 13 14 -2 25 -11 25
-18z"/>
<path d="M3132 2555 c-3 -37 -39 -254 -47 -281 -3 -10 3 -3 14 18 25 45 43
155 38 234 -2 32 -4 46 -5 29z"/>
<path d="M420 2459 c-19 -10 -45 -19 -57 -19 -27 0 -27 -1 -5 -109 10 -47 23
-86 31 -89 10 -3 11 8 6 52 -5 39 -4 56 4 56 6 0 11 -10 11 -23 0 -35 29 -127
40 -127 15 0 11 39 -8 97 l-18 51 27 6 c33 6 40 24 32 81 -6 50 -13 52 -63 24z
m40 -48 c0 -17 -33 -31 -76 -31 -27 0 -14 26 19 37 48 16 57 15 57 -6z"/>
<path d="M4606 2434 c-3 -9 -6 -29 -6 -45 0 -26 3 -29 34 -29 19 0 37 -4 40
-8 3 -5 1 -37 -5 -73 -5 -35 -12 -83 -15 -106 -4 -28 -3 -43 4 -43 12 0 39
113 49 200 l6 59 -39 3 c-34 3 -39 6 -42 31 -4 30 -17 36 -26 11z"/>
<path d="M4746 2346 c-10 -101 -64 -363 -86 -413 -15 -35 -24 -43 -54 -48 -50
-10 -38 -25 41 -49 20 -6 24 -1 43 61 29 98 78 344 86 439 5 68 4 81 -9 81
-11 0 -16 -18 -21 -71z"/>
<path d="M482 2239 c2 -6 8 -10 13 -10 5 0 11 4 13 10 2 6 -4 11 -13 11 -9 0
-15 -5 -13 -11z"/>
<path d="M3232 2140 c-58 -45 -70 -60 -47 -60 21 0 101 55 108 74 12 31 -12
25 -61 -14z"/>
<path d="M1334 2105 c-9 -23 3 -45 25 -45 23 0 35 28 20 46 -15 18 -38 18 -45
-1z"/>
<path d="M1470 1955 c-16 -19 -7 -30 113 -135 76 -67 167 -130 167 -117 0 3
-24 22 -52 43 -71 51 -175 142 -194 171 -12 19 -13 27 -3 39 9 11 8 14 -4 14
-8 0 -20 -7 -27 -15z"/>
<path d="M3252 1792 c46 -53 95 -132 80 -132 -5 0 -35 9 -67 20 -80 27 -88 25
-35 -11 82 -55 122 -72 131 -57 14 21 10 50 -11 93 -22 47 -42 71 -91 108 -53
40 -56 33 -7 -21z"/>
<path d="M3120 1280 c-186 -40 -373 -121 -430 -186 -47 -54 -40 -70 13 -30 92
69 348 171 537 215 l85 19 -60 0 c-33 1 -98 -8 -145 -18z"/>
<path d="M1680 1201 c0 -6 10 -11 23 -11 54 -1 272 -118 517 -278 150 -98 225
-132 316 -145 105 -15 116 1 25 37 -117 46 -294 163 -486 320 -53 44 -52 36 4
-34 l36 -45 -45 26 c-89 52 -186 98 -240 113 -82 23 -150 30 -150 17z"/>
<path d="M2438 743 c6 -2 18 -2 25 0 6 3 1 5 -13 5 -14 0 -19 -2 -12 -5z"/>
</g>
</svg>